<?xml version="1.0" encoding="UTF-8"?>
<!DOCTYPE svg PUBLIC "-//W3C//DTD SVG Tiny 1.2//EN"
  "http://www.w3.org/Graphics/SVG/1.2/DTD/svg12.dtd">
<svg version="1.2" baseProfile="tiny-ps"
  xmlns="http://www.w3.org/2000/svg"
  xmlns:xlink="http://www.w3.org/1999/xlink"
  viewBox="0 0 800 800"
  width="800" height="800"
  color-interpolation="linearRGB">
  <title>Eurus</title>

  <!-- Background -->
  <rect width="800" height="800" fill="#111111"/>

  <!-- Outer diamond centered at (400,300), half-diag=105 -->
  <polygon points="400,195 505,300 400,405 295,300"
    fill="none" stroke="#ffffff" stroke-width="3.5" stroke-linejoin="round"/>

  <!-- Inner diamond, same center, half-diag=62 -->
  <polygon points="400,238 462,300 400,362 338,300"
    fill="none" stroke="#ffffff" stroke-width="2.2" stroke-linejoin="round" opacity="0.45"/>

  <!-- Cut accent on top-right corner -->
  <line x1="462" y1="228" x2="504" y2="268"
    stroke="#ffffff" stroke-width="4" stroke-linecap="round"/>

  <!-- Center dot -->
  <circle cx="400" cy="300" r="5" fill="#ffffff" opacity="0.7"/>

  <!-- Wordmark: EURUS — text converted to path (Inter Light 300, 88px, ls=22) -->
  <path d="M217.83,530.0 L217.83,465.98 L255.21,465.98 L255.21,471.45 L223.93,471.45 L223.93,495.05 L253.2,495.05 L253.2,500.52 L223.93,500.52 L223.93,524.53 L255.78,524.53 L255.78,530.0 Z M316.13,531.0 Q308.91,531.0 303.4,528.04 Q297.89,525.09 294.82,519.95 Q291.75,514.8 291.75,508.26 L291.75,465.98 L297.85,465.98 L297.85,507.83 Q297.85,512.87 300.13,516.82 Q302.4,520.76 306.51,523.03 Q310.63,525.3 316.13,525.3 Q321.64,525.3 325.73,523.03 Q329.82,520.76 332.08,516.82 Q334.34,512.87 334.34,507.83 L334.34,465.98 L340.45,465.98 L340.45,508.26 Q340.45,514.8 337.38,519.95 Q334.32,525.09 328.84,528.04 Q323.36,531.0 316.13,531.0 Z M378.96,530.0 L378.96,465.98 L399.84,465.98 Q406.62,465.98 411.21,468.44 Q415.81,470.9 418.15,475.26 Q420.5,479.61 420.5,485.26 Q420.5,490.87 418.15,495.15 Q415.81,499.43 411.23,501.84 Q406.65,504.25 399.87,504.25 L382.34,504.25 L382.34,498.75 L399.61,498.75 Q404.58,498.75 407.86,497.09 Q411.13,495.42 412.78,492.4 Q414.42,489.37 414.42,485.26 Q414.42,481.06 412.78,477.96 Q411.13,474.87 407.84,473.15 Q404.55,471.42 399.56,471.42 L385.06,471.42 L385.06,530.0 Z M416.11,530.0 L400.56,501.07 L407.43,501.07 L423.16,530.0 Z M480.7,531.0 Q473.48,531.0 467.97,528.04 Q462.46,525.09 459.39,519.95 Q456.32,514.8 456.32,508.26 L456.32,465.98 L462.42,465.98 L462.42,507.83 Q462.42,512.87 464.7,516.82 Q466.97,520.76 471.08,523.03 Q475.2,525.3 480.7,525.3 Q486.21,525.3 490.3,523.03 Q494.39,520.76 496.65,516.82 Q498.91,512.87 498.91,507.83 L498.91,465.98 L505.02,465.98 L505.02,508.26 Q505.02,514.8 501.95,519.95 Q498.89,525.09 493.41,528.04 Q487.93,531.0 480.7,531.0 Z M562.78,531.09 Q556.22,531.09 551.37,528.92 Q546.52,526.75 543.76,522.86 Q540.99,518.97 540.64,513.82 L546.88,513.82 Q547.21,517.61 549.37,520.22 Q551.54,522.84 555.04,524.18 Q558.54,525.53 562.78,525.53 Q567.52,525.53 571.2,523.95 Q574.88,522.37 577.0,519.5 Q579.11,516.64 579.11,512.87 Q579.11,509.66 577.45,507.51 Q575.79,505.35 572.8,503.85 Q569.81,502.34 565.79,501.18 L558.23,498.98 Q550.55,496.73 546.44,492.7 Q542.33,488.68 542.33,482.59 Q542.33,477.41 545.1,473.45 Q547.87,469.5 552.63,467.29 Q557.38,465.09 563.32,465.09 Q569.37,465.09 573.99,467.31 Q578.61,469.53 581.3,473.36 Q583.99,477.19 584.21,482.08 L578.22,482.08 Q577.69,476.78 573.57,473.67 Q569.44,470.56 563.15,470.56 Q558.78,470.56 555.42,472.09 Q552.05,473.61 550.17,476.27 Q548.29,478.92 548.29,482.33 Q548.29,485.64 550.16,487.87 Q552.04,490.1 554.95,491.51 Q557.85,492.92 560.92,493.82 L567.62,495.74 Q570.71,496.63 573.8,497.96 Q576.89,499.29 579.44,501.28 Q581.99,503.27 583.53,506.13 Q585.07,508.99 585.07,512.96 Q585.07,518.11 582.4,522.22 Q579.72,526.33 574.73,528.71 Q569.74,531.09 562.78,531.09 Z"
    fill="#ffffff"/>
</svg>